# xmcd
#
# Track frame offsets: 
#        150
#        23035
#        44669
#        61207
#        88595
#        116339
#        137945
#        150823
#        167285
#        184978
#
# Disc length: 2839 seconds
#
# Revision: 1
# Processed by: cddbd v1.5.2PL0 Copyright (c) Steve Scherf et al.
# Submitted via: ExactAudioCopyFreeDBPlugin 1.0
#
DISCID=760b150a
DTITLE=Martyna Jakubowicz - Kołysz mnie CD1
DYEAR=1992
DGENRE=Blues
TTITLE0=Karczma na moście
TTITLE1=Żagle tuż nad ziemią
TTITLE2=Stara taśma na moim Grundigu
TTITLE3=Młode wino
TTITLE4=Kiedy będę starą kobietą
TTITLE5=Siłą złości, post miłości
TTITLE6=Puste miejsce po obrazku na ścianie
TTITLE7=I wtedy właśnie
TTITLE8=Dom zachodzącego słońca
TTITLE9=Ardżuna i Kriszna
EXTD=YEAR: 1992
EXTT0=
EXTT1=
EXTT2=
EXTT3=
EXTT4=
EXTT5=
EXTT6=
EXTT7=
EXTT8=
EXTT9=
PLAYORDER=
